<svg viewBox="0 0 32 32" xmlns="http://www.w3.org/2000/svg"><path d="M30.1 11.5L17.4 4.8c-.8-.4-2-.4-2.8 0L1.9 11.5c-.5.3-.8.7-.8 1.2s.3.9.8 1.2l12.7 6.7c.4.2.9.3 1.4.3s1-.1 1.4-.3l6.3-3.3v5.2c0 2.1-3.6 3.8-7.9 3.8S8 24.4 8 22.3v-3.9c0-.4-.3-.6-.6-.6s-.6.2-.6.6v3.9c0 2.8 4 5.1 9.1 5.1s9.1-2.2 9.1-5.1v-5.8l2.3-1.2V22c-.6.2-1 .8-1 1.5 0 .3.1.6.3.9-.3.3-.5.8-.5 1.4l-.2 3.5c0 1.1.7 1.6 1.4 1.6h1.3c.7 0 1.4-.5 1.4-1.7l-.2-3.5c0-.6-.2-1.1-.5-1.4.2-.3.3-.6.3-.9 0-.7-.4-1.3-1-1.5v-7.5l1.4-.8c.5-.3.8-.7.8-1.2.1-.2-.2-.6-.7-.9zm-1.5 14.4l.2 3.5c0 .1 0 .4-.2.4h-1.3c-.2 0-.2-.3-.2-.3l.2-3.5c0-.3.1-.6.2-.6h.9c.1-.1.2.1.2.5zm-1-2.4c0-.2.2-.4.4-.4s.4.2.4.4-.2.4-.4.4-.4-.2-.4-.4zm1.9-10.8l-1.3.7H28l-10-1c-.2-.8-1-1.4-2-1.4-1.2 0-2.1.7-2.1 1.6s.9 1.6 2.1 1.6c.7 0 1.3-.3 1.7-.7l8.5.8-9.4 4.9c-.4.2-1.2.2-1.6 0L2.5 12.7 15.2 6c.4-.2 1.2-.2 1.6 0l12.7 6.7c0-.1 0-.1 0 0 0-.1 0 0 0 0zm-12.7-.1c0 .1-.3.3-.8.3-.6 0-.8-.3-.8-.3s.3-.3.8-.3.8.3.8.3zM5.3 3.9V1.6c0-.3-.3-.6-.7-.6s-.6.3-.6.6v2.2H1.8c-.4 0-.6.3-.6.6s.3.6.6.6H4v2.2c0 .5.3.8.6.8s.6-.3.6-.6V5.1h2.2c.4 0 .6-.3.6-.6s-.2-.6-.5-.6z" fill="#fff"/></svg>