<svg viewBox="0 0 32 32" xmlns="http://www.w3.org/2000/svg"><g fill="#fff"><path d="M17.3 18.1c0-.4.3-.7.7-.7h2.5c.4 0 .7.3.7.7v10.6h.9V18.1c0-.9-.7-1.7-1.7-1.7H18c-.9 0-1.7.7-1.7 1.7v10.6h.9V18.1zm-7.5 2.5v8.1h.9v-8.1c0-.4.3-.7.7-.7H14c.4 0 .7.3.7.7v8.1h.9v-8.1c0-.9-.7-1.7-1.7-1.7h-2.5c-.9 0-1.6.8-1.6 1.7zm-5.7 2.5c0-.4.3-.7.7-.7h2.5c.4 0 .7.3.7.7v5.6h1v-5.6c0-.9-.7-1.7-1.7-1.7H4.8c-.9 0-1.7.7-1.7 1.7v5.6H4v-5.6zm26.5 6.2H1.4c-.2 0-.4.2-.4.4s.2.4.4.4h29.2c.2 0 .4-.2.4-.4s-.2-.4-.4-.4zM3.8 18.9c.1 0 .2 0 .3-.1l6.5-4.3-.3 1.6c-.1.3.1.5.4.6h.1c.2 0 .4-.2.5-.4l.6-2.7v-.3h-.1l-2.7-.6c-.2-.1-.5.1-.6.4s.1.5.4.6l1.6.3-6.6 4.3c-.2.1-.3.4-.1.6-.3 0-.1 0 0 0z"/><circle cx="26" cy="3" r="1.1"/><path d="M21.9 3.3l2.7 1.9v2.9c0 .1 0 .2.1.3v5.5c-.9 0-1.7.7-1.7 1.7v13.1h1V15.6c0-.4.3-.7.7-.7h2.5c.4 0 .7.3.7.7v13.1h.9V15.6c0-.9-.7-1.7-1.7-1.7V8.5c0-.1.1-.2.1-.3V5.3l2.8-2c.2-.1.3-.4.1-.6-.1-.2-.4-.3-.6-.1l-2.8 2h-1.6l-2.8-2c-.2-.1-.5-.1-.6.1s0 .4.2.6zm3.9 10.6v-5h.4v5z"/></g></svg>