<svg enable-background="new 0 0 32 32" viewBox="0 0 32 32" xmlns="http://www.w3.org/2000/svg"><g fill="#fff"><path d="m17.3 18.1c0-.4.3-.7.7-.7h2.5c.4 0 .7.3.7.7v10.6h.9v-10.6c0-.9-.7-1.7-1.7-1.7h-2.4c-.9 0-1.7.7-1.7 1.7v10.6h.9v-10.6z"/><path d="m9.8 20.6v8.1h.9v-8.1c0-.4.3-.7.7-.7h2.6c.4 0 .7.3.7.7v8.1h.9v-8.1c0-.9-.7-1.7-1.7-1.7h-2.5c-.9 0-1.6.8-1.6 1.7z"/><path d="m4.1 23.1c0-.4.3-.7.7-.7h2.5c.4 0 .7.3.7.7v5.6h1v-5.6c0-.9-.7-1.7-1.7-1.7h-2.5c-.9 0-1.7.7-1.7 1.7v5.6h.9v-5.6z"/><path d="m30.6 29.3h-29.2c-.2 0-.4.2-.4.4s.2.4.4.4h29.2c.2 0 .4-.2.4-.4s-.2-.4-.4-.4z"/><path d="m3.8 18.9c.1 0 .2 0 .3-.1l6.5-4.3-.3 1.6c-.1.3.1.5.4.6h.1c.2 0 .4-.2.5-.4l.6-2.7v-.1s0 0 0-.1v-.1h-.1l-2.7-.6c-.2-.1-.5.1-.6.4s.1.5.4.6l1.6.3-6.6 4.3c-.2.1-.3.4-.1.6-.3 0-.1 0 0 0z"/><circle cx="26" cy="3" r="1.1"/><path d="m21.9 3.3 2.7 1.9v2.9c0 .1 0 .2.1.3v5.5c-.9 0-1.7.7-1.7 1.7v13.1h1v-13.1c0-.4.3-.7.7-.7h2.5c.4 0 .7.3.7.7v13.1h.9v-13.1c0-.9-.7-1.7-1.7-1.7v-5.4c0-.1.1-.2.1-.3v-2.9l2.8-2c.2-.1.3-.4.1-.6-.1-.2-.4-.3-.6-.1l-2.8 2c-.1 0-.2 0-.3 0h-1c-.1 0-.2 0-.3 0l-2.8-2c-.2-.1-.5-.1-.6.1s0 .4.2.6zm3.9 10.6v-5h.4v5z"/></g></svg>